# xmcd
#
# Track frame offsets:
# 150
# 15658
# 31690
# 48538
# 66055
# 78339
# 94218
# 110230
# 126407
# 150278
# 170749
# 181416
# 235095
#
# Disc length: 4124 seconds
#
#
# Revision: 0
# Processed by: cddbd v1.5.2PL0 Copyright (c) Steve Scherf et al.
# Submitted via: FreeRIP 2.945 
#
DISCID=a4101a0d
DTITLE=Eric Bibb - Diamond Days
DYEAR=2007
DGENRE=Blues
TTITLE0=Tall Cotton
TTITLE1=Destiny Blues
TTITLE2=Shine On
TTITLE3=So Glad
TTITLE4=Storybook Hero
TTITLE5=Diamond Days
TTITLE6=Dr Shine
TTITLE7=Heading Home
TTITLE8=In My Father's House
TTITLE9=Foregiveness is Gold
TTITLE10=Buckets of Rain
TTITLE11=Still Livin' On
TTITLE12=Worried Man Blues (Bonus)
EXTD=
EXTT0=
EXTT1=
EXTT2=
EXTT3=
EXTT4=
EXTT5=
EXTT6=
EXTT7=
EXTT8=
EXTT9=
EXTT10=
EXTT11=
EXTT12=
PLAYORDER=
